<svg width="60" height="51" viewBox="0 0 60 51" fill="currentColor" xmlns="http://www.w3.org/2000/svg">
<path d="M42.1753 37.8706C39.4215 37.8706 37.2135 39.7431 37.2135 42.0784C37.2135 43.1944 37.7363 44.2647 38.6668 45.0538C39.5973 45.843 40.8594 46.2863 42.1753 46.2863C43.4913 46.2863 44.7533 45.843 45.6838 45.0538C46.6143 44.2647 47.1371 43.1944 47.1371 42.0784C47.1371 40.9624 46.6143 39.8922 45.6838 39.103C44.7533 38.3139 43.4913 37.8706 42.1753 37.8706ZM2.48096 4.20782V8.41567H7.44275L16.374 24.3844L13 29.5391C12.6278 30.1282 12.4045 30.8225 12.4045 31.5588C12.4045 32.6748 12.9273 33.7451 13.8578 34.5342C14.7883 35.3233 16.0504 35.7667 17.3663 35.7667H47.1371V31.5588H18.4083C18.2438 31.5588 18.0861 31.5034 17.9698 31.4048C17.8534 31.3061 17.7881 31.1723 17.7881 31.0328C17.7881 30.9276 17.8129 30.8435 17.8625 30.7804L20.0953 27.351H38.578C40.4387 27.351 42.0761 26.4673 42.9196 25.1839L51.8012 11.5716C51.9749 11.2349 52.0989 10.8773 52.0989 10.5196C52.0989 9.9616 51.8375 9.42646 51.3723 9.0319C50.907 8.63733 50.276 8.41567 49.618 8.41567H12.9255L10.5935 4.20782M17.3663 37.8706C14.6125 37.8706 12.4045 39.7431 12.4045 42.0784C12.4045 43.1944 12.9273 44.2647 13.8578 45.0538C14.7883 45.843 16.0504 46.2863 17.3663 46.2863C18.6823 46.2863 19.9443 45.843 20.8749 45.0538C21.8054 44.2647 22.3281 43.1944 22.3281 42.0784C22.3281 40.9624 21.8054 39.8922 20.8749 39.103C19.9443 38.3139 18.6823 37.8706 17.3663 37.8706Z" fill="currentColor" />
</svg>
